<?xml version="1.0" encoding="UTF-8" standalone="no"?>
<!-- Created with Inkscape (http://www.inkscape.org/) -->

<svg
   width="32"
   height="32"
   viewBox="0 0 8.4666668 8.4666659"
   version="1.1"
   id="svg5"
   sodipodi:docname="Favicon.svg"
   inkscape:version="1.4 (e7c3feb1, 2024-10-09)"
   inkscape:export-filename="../../../../../Desktop/Favicon.ico"
   inkscape:export-xdpi="432"
   inkscape:export-ydpi="432"
   xmlns:inkscape="http://www.inkscape.org/namespaces/inkscape"
   xmlns:sodipodi="http://sodipodi.sourceforge.net/DTD/sodipodi-0.dtd"
   xmlns="http://www.w3.org/2000/svg"
   xmlns:svg="http://www.w3.org/2000/svg">
  <sodipodi:namedview
     id="namedview1"
     pagecolor="#505050"
     bordercolor="#ffffff"
     borderopacity="1"
     inkscape:showpageshadow="0"
     inkscape:pageopacity="0"
     inkscape:pagecheckerboard="1"
     inkscape:deskcolor="#d1d1d1"
     inkscape:document-units="mm"
     inkscape:zoom="8.7299174"
     inkscape:cx="16.380453"
     inkscape:cy="10.023004"
     inkscape:current-layer="g1" />
  <defs
     id="defs2" />
  <g
     id="g48"
     transform="matrix(0.74780058,0,0,0.74780058,0.63494621,-1.7955343)"
     style="stroke-width:1.33725">
    <g
       id="g24"
       transform="matrix(0.28606158,0,0,0.28606158,-3.5340363,-4.7460447)"
       style="stroke-width:4.67469" />
    <g
       id="g330"
       transform="translate(-0.11028065,-1.663945)"
       style="stroke-width:1.33725">
      <g
         id="g329"
         transform="matrix(1.1666667,0,0,1,-5.7024787,1.33874)"
         style="stroke:none;stroke-width:1.23806" />
    </g>
    <g
       id="g1"
       transform="matrix(7.2081809,0,0,7.2081809,5.6068907,-14.906383)">
      <g
         id="g34"
         transform="matrix(1.1666667,0,0,1,-5.8127593,1.4842233)"
         style="stroke:none;stroke-width:1.23806">
        <g
           id="g42"
           transform="translate(5.3852537,-4.9777436)"
           style="stroke-width:1.23806">
          <path
             style="fill:#ff4d4d;fill-opacity:1;stroke:none;stroke-width:0.185709;stroke-linecap:round;stroke-linejoin:round;stroke-dasharray:none;stroke-opacity:1;paint-order:stroke markers fill"
             d="M -0.75421511,5.8946074 V 7.1966825 L -1.1306758,7.4653354 V 6.1632605 Z"
             id="path29" />
          <path
             style="fill:#ff7070;fill-opacity:1;stroke:none;stroke-width:0.185709;stroke-linecap:round;stroke-linejoin:round;stroke-dasharray:none;stroke-opacity:1;paint-order:stroke markers fill"
             d="m -0.75421511,5.8946074 v 1.3020751 l 0.51359855,0.2686529 V 6.1632605 Z"
             id="path30" />
          <path
             style="fill:#ff4d4d;fill-opacity:1;stroke:none;stroke-width:0.185709;stroke-linecap:round;stroke-linejoin:round;stroke-dasharray:none;stroke-opacity:1;paint-order:stroke markers fill"
             d="M 0.13584414,5.8946074 V 7.1966825 L -0.24061654,7.4653354 V 6.1632605 Z"
             id="path32" />
        </g>
      </g>
      <circle
         style="fill:none;fill-opacity:1;stroke:#fff4f4;stroke-width:0.0534902;stroke-linecap:round;stroke-dasharray:none;stroke-dashoffset:0;stroke-opacity:1;paint-order:stroke markers fill"
         id="path498"
         cx="-0.63161695"
         cy="3.4850972"
         r="0.12335889" />
      <g
         id="g500"
         transform="rotate(-43.622297,1.3999189,2.5177321)">
        <path
           style="fill:#ffffff;fill-opacity:1;stroke:#fff4f4;stroke-width:0.0668626;stroke-linecap:butt;stroke-dasharray:none;stroke-dashoffset:0;stroke-opacity:1;paint-order:stroke markers fill"
           d="M 0.4415308,1.9120805 V 2.2504843"
           id="path499" />
        <path
           style="fill:#ffffff;fill-opacity:1;stroke:#fff4f4;stroke-width:0.0668626;stroke-linecap:butt;stroke-dasharray:none;stroke-dashoffset:0;stroke-opacity:1;paint-order:stroke markers fill"
           d="M 0.2723289,2.0812824 H 0.6107327"
           id="path500" />
      </g>
      <path
         style="fill:#fff4f4;stroke-linecap:round;stroke-dasharray:0.0534902, 0.10698;paint-order:stroke markers fill"
         d="m 0.12304687,2.8261719 a 0.0267451,0.0267451 0 0 0 -0.02734375,0.027344 0.0267451,0.0267451 0 0 0 0.02734375,0.027344 H 0.140625 l 0.0292969,0.00195 h 0.001953 a 0.0267451,0.0267451 0 0 0 0.03125,-0.021484 0.0267451,0.0267451 0 0 0 -0.0214844,-0.03125 h -0.003906 l -0.0351563,-0.00391 z m -0.11523437,0.025391 -0.0234375,0.011719 -0.02734375,0.019531 a 0.0267451,0.0267451 0 0 0 -0.0039063,0.037109 0.0267451,0.0267451 0 0 0 0.03710937,0.00586 L 0.01171875,2.9082031 0.03125,2.9003906 A 0.0267451,0.0267451 0 0 0 0.04296875,2.8632813 0.0267451,0.0267451 0 0 0 0.0078125,2.8515625 Z m -0.10546875,0.1113281 a 0.0267451,0.0267451 0 0 0 -0.015625,0.011719 l -0.003906,0.00586 -0.0117188,0.029297 -0.005859,0.019531 a 0.0267451,0.0267451 0 0 0 0.0175781,0.035156 0.0267451,0.0267451 0 0 0 0.03320313,-0.017578 l 0.0058594,-0.019531 0.0097656,-0.023437 0.0019531,-0.00195 a 0.0267451,0.0267451 0 0 0 -0.0097656,-0.037109 0.0267451,0.0267451 0 0 0 -0.02148438,-0.00195 z M -0.12695312,3.1171875 A 0.0267451,0.0267451 0 0 0 -0.15625,3.140625 l -0.003906,0.052734 a 0.0267451,0.0267451 0 0 0 0.0234375,0.029297 0.0267451,0.0267451 0 0 0 0.0292969,-0.023437 l 0.003906,-0.054687 a 0.0267451,0.0267451 0 0 0 -0.0234375,-0.027344 z m -0.0117188,0.1582031 a 0.0267451,0.0267451 0 0 0 -0.03125,0.023437 l -0.005859,0.029297 -0.003906,0.019531 a 0.0267451,0.0267451 0 0 0 0.0175781,0.033203 0.0267451,0.0267451 0 0 0 0.0332031,-0.019531 l 0.005859,-0.021484 0.005859,-0.033203 a 0.0267451,0.0267451 0 0 0 -0.0214844,-0.03125 z m -0.0664063,0.1503907 a 0.0267451,0.0267451 0 0 0 -0.015625,0.011719 l -0.0175781,0.017578 -0.015625,0.00977 a 0.0267451,0.0267451 0 0 0 -0.007813,0.037109 0.0267451,0.0267451 0 0 0 0.0371094,0.00781 l 0.0214844,-0.013672 0.0253906,-0.027344 0.001953,-0.00195 a 0.0267451,0.0267451 0 0 0 -0.007813,-0.037109 0.0267451,0.0267451 0 0 0 -0.0214844,-0.00391 z m -0.19726562,0.039063 a 0.0267451,0.0267451 0 0 0 -0.015625,0.015625 0.0267451,0.0267451 0 0 0 0.0136719,0.035156 l 0.0136719,0.00391 0.03125,0.00977 0.0136719,0.00195 a 0.0267451,0.0267451 0 0 0 0.03125,-0.023437 0.0267451,0.0267451 0 0 0 -0.0234375,-0.029297 l -0.0117188,-0.00195 -0.0234375,-0.00781 -0.009766,-0.00391 a 0.0267451,0.0267451 0 0 0 -0.0195313,0 z"
         id="path501" />
    </g>
  </g>
</svg>
