<?xml version="1.0" encoding="UTF-8" standalone="no"?>
<!-- Created with Inkscape (http://www.inkscape.org/) -->

<svg
   width="6.5666828mm"
   height="1.2115991mm"
   viewBox="0 0 6.5666827 1.211599"
   version="1.1"
   id="svg5"
   sodipodi:docname="Logo.svg"
   inkscape:version="1.3.2 (091e20e, 2023-11-25)"
   xmlns:inkscape="http://www.inkscape.org/namespaces/inkscape"
   xmlns:sodipodi="http://sodipodi.sourceforge.net/DTD/sodipodi-0.dtd"
   xmlns:xlink="http://www.w3.org/1999/xlink"
   xmlns="http://www.w3.org/2000/svg"
   xmlns:svg="http://www.w3.org/2000/svg">
  <sodipodi:namedview
     id="namedview1"
     pagecolor="#505050"
     bordercolor="#ffffff"
     borderopacity="1"
     inkscape:showpageshadow="0"
     inkscape:pageopacity="0"
     inkscape:pagecheckerboard="1"
     inkscape:deskcolor="#d1d1d1"
     inkscape:document-units="mm"
     inkscape:zoom="16.680797"
     inkscape:cx="12.409479"
     inkscape:cy="2.2780686"
     inkscape:current-layer="g48" />
  <defs
     id="defs2">
    <linearGradient
       id="linearGradient4">
      <stop
         style="stop-color:#ff4d4d;stop-opacity:1;"
         offset="0"
         id="stop4" />
      <stop
         style="stop-color:#ff7070;stop-opacity:1;"
         offset="1"
         id="stop5" />
    </linearGradient>
    <linearGradient
       xlink:href="#linearGradient4"
       id="linearGradient5"
       x1="2.4578965"
       y1="3.3945825"
       x2="9.5642128"
       y2="3.4096215"
       gradientUnits="userSpaceOnUse"
       gradientTransform="translate(-1.8198419,-0.09138337)" />
  </defs>
  <g
     id="g48"
     transform="matrix(0.74780058,0,0,0.74780058,0.63494623,-1.7955343)"
     style="stroke-width:1.33725">
    <path
       style="font-weight:bold;font-size:1.43621px;font-family:Urbanist;-inkscape-font-specification:'Urbanist Bold';text-align:center;letter-spacing:0px;text-anchor:middle;fill:url(#linearGradient5);stroke-width:0.334314;stroke-linecap:round;paint-order:stroke markers fill"
       d="M 0.98170355,3.6622515 1.1770281,2.6569044 H 1.3220853 L 1.5669591,3.3010446 1.8118329,2.6569044 H 1.9568902 L 2.1522147,3.6622515 H 1.9734066 L 1.8527649,3.0403725 1.6265619,3.6392721 H 1.5066383 L 1.2804352,3.0403725 1.1605117,3.6622515 Z M 2.564407,3.6809222 q -0.099099,0 -0.1809625,-0.050985 -0.081146,-0.050985 -0.129977,-0.137158 -0.048113,-0.086173 -0.048113,-0.1902978 0,-0.078273 0.028006,-0.1464935 0.028006,-0.068938 0.076837,-0.1206416 0.049549,-0.052422 0.1148968,-0.081864 0.065348,-0.029442 0.1393124,-0.029442 0.084018,0 0.1536745,0.035905 0.070374,0.035187 0.1192054,0.096944 0.048831,0.061757 0.071092,0.1407486 0.022261,0.078992 0.010054,0.1651642 H 2.393498 q 0.010053,0.040214 0.033033,0.072529 0.022979,0.031597 0.058167,0.050985 0.035187,0.018671 0.07971,0.019389 0.045959,7.181e-4 0.0833,-0.021543 0.038059,-0.022979 0.063193,-0.061757 l 0.1788082,0.04165 Q 2.8459041,3.5595625 2.7590134,3.6206014 2.6721227,3.6809222 2.564407,3.6809222 Z M 2.3877531,3.2313885 h 0.3533077 q -0.0079,-0.043086 -0.033751,-0.077555 -0.025134,-0.035187 -0.062475,-0.056012 -0.037341,-0.020825 -0.080428,-0.020825 -0.043086,0 -0.07971,0.020825 -0.036623,0.020107 -0.062475,0.055294 -0.025134,0.034469 -0.034469,0.078273 z M 3.5805249,2.5850939 H 3.7557425 V 3.6622515 H 3.5805249 v -0.089763 q -0.034469,0.048113 -0.086891,0.078274 -0.052422,0.03016 -0.1213598,0.03016 -0.078273,0 -0.1464934,-0.029442 -0.06822,-0.029442 -0.1206416,-0.081146 -0.051704,-0.052422 -0.081146,-0.1206416 -0.029442,-0.06822 -0.029442,-0.1464934 0,-0.078274 0.029442,-0.1464935 0.029442,-0.06822 0.081146,-0.1199235 0.052422,-0.052422 0.1206416,-0.081864 0.06822,-0.029442 0.1464934,-0.029442 0.068938,0 0.1213598,0.03016 0.052422,0.029442 0.086891,0.078273 z M 3.3744288,3.5121675 q 0.056012,0 0.099098,-0.028006 0.043086,-0.028006 0.067502,-0.075401 0.024416,-0.048113 0.024416,-0.1055614 0,-0.058167 -0.024416,-0.1055615 -0.024416,-0.048113 -0.06822,-0.076119 -0.043086,-0.028006 -0.09838,-0.028006 -0.055294,0 -0.1012529,0.028724 -0.045241,0.028006 -0.072529,0.075401 -0.02657,0.047395 -0.02657,0.1055615 0,0.058166 0.027288,0.1055614 0.027288,0.047395 0.072529,0.075401 0.045959,0.028006 0.1005347,0.028006 z m 0.5536601,-0.568021 h 0.1752177 v 0.718105 H 3.9280889 Z m 0.089045,-0.092636 q -0.038778,0 -0.065348,-0.025134 -0.02657,-0.025852 -0.02657,-0.064629 0,-0.03806 0.02657,-0.063911 0.02657,-0.025852 0.064629,-0.025852 0.03806,0 0.063911,0.025852 0.02657,0.025852 0.02657,0.063911 0,0.038778 -0.025852,0.064629 -0.025852,0.025134 -0.063911,0.025134 z M 4.9183557,3.6622515 H 4.7165682 L 4.5528403,3.3800362 4.4523056,3.4999597 V 3.6622515 H 4.277088 V 2.5850939 h 0.1752176 v 0.642704 L 4.6899983,2.9441465 h 0.2290755 l -0.24631,0.2937049 z m 0.1271043,0 0.1953246,-1.0053471 H 5.3858418 L 5.6307156,3.3010446 5.8755894,2.6569044 H 6.0206466 L 6.2159712,3.6622515 H 6.037163 L 5.9165214,3.0403725 5.6903183,3.6392721 H 5.5703948 L 5.3441917,3.0403725 5.2242682,3.6622515 Z m 1.8081887,-0.718105 h 0.1752176 v 0.718105 H 6.8536487 l -0.0079,-0.089045 q -0.029442,0.048113 -0.078273,0.078273 -0.048113,0.029442 -0.1141787,0.029442 -0.07971,0 -0.1493659,-0.03016 -0.069656,-0.03016 -0.1227959,-0.0833 -0.052422,-0.05314 -0.082582,-0.1227959 -0.029442,-0.069656 -0.029442,-0.1493659 0,-0.076837 0.028006,-0.1443391 0.028724,-0.067502 0.07971,-0.1184873 0.050985,-0.050986 0.1177693,-0.07971 0.066784,-0.028724 0.143621,-0.028724 0.071092,0 0.1271045,0.031597 0.05673,0.031597 0.096226,0.080428 z m -0.20466,0.568021 q 0.056012,0 0.099098,-0.028006 0.043086,-0.028006 0.067502,-0.075401 0.024416,-0.048113 0.024416,-0.1055614 0,-0.058167 -0.024416,-0.1055615 -0.024416,-0.048113 -0.06822,-0.076119 -0.043086,-0.028006 -0.09838,-0.028006 -0.055294,0 -0.1012528,0.028724 -0.045241,0.028006 -0.072529,0.075401 -0.02657,0.047395 -0.02657,0.1055615 0,0.058166 0.027288,0.1055614 0.027288,0.047395 0.072529,0.075401 0.045959,0.028006 0.1005347,0.028006 z M 7.3477061,4.021304 H 7.1724885 V 2.9441465 h 0.1752176 v 0.091199 q 0.035187,-0.048831 0.086173,-0.078992 0.051704,-0.030879 0.1206416,-0.030879 0.078992,0 0.1472116,0.029442 0.06822,0.029442 0.1199235,0.081864 0.052422,0.051704 0.081146,0.1199235 0.029442,0.06822 0.029442,0.1464935 0,0.078273 -0.029442,0.1472115 -0.028724,0.068938 -0.081146,0.1213597 -0.051704,0.051704 -0.1199235,0.081146 -0.06822,0.029442 -0.1472116,0.029442 -0.068938,0 -0.1206416,-0.03016 -0.050985,-0.030879 -0.086173,-0.07971 z M 7.552366,3.0942304 q -0.054576,0 -0.097662,0.028724 -0.043086,0.028006 -0.067502,0.075401 -0.024416,0.047395 -0.024416,0.1048434 0,0.057448 0.024416,0.1055614 0.024416,0.047395 0.067502,0.076119 0.043086,0.028006 0.097662,0.028006 0.055294,0 0.1012528,-0.028006 0.045959,-0.028006 0.073247,-0.075401 0.027288,-0.048113 0.027288,-0.1062795 0,-0.057448 -0.027288,-0.1048434 -0.027288,-0.047395 -0.073247,-0.075401 -0.045241,-0.028724 -0.1012528,-0.028724 z"
       id="text1"
       aria-label="MedikMap" />
    <g
       id="g34"
       transform="matrix(1.1666667,0,0,1,-5.8127593,1.4842233)"
       style="stroke:none;stroke-width:1.23806">
      <g
         id="g42"
         transform="translate(5.3852537,-4.9777436)"
         style="stroke-width:1.23806">
        <path
           style="fill:#ff4d4d;fill-opacity:1;stroke:none;stroke-width:0.185709;stroke-linecap:round;stroke-linejoin:round;stroke-dasharray:none;stroke-opacity:1;paint-order:stroke markers fill"
           d="M -0.75421511,5.8946074 V 7.1966825 L -1.1306758,7.4653354 V 6.1632605 Z"
           id="path29" />
        <path
           style="fill:#ff7070;fill-opacity:1;stroke:none;stroke-width:0.185709;stroke-linecap:round;stroke-linejoin:round;stroke-dasharray:none;stroke-opacity:1;paint-order:stroke markers fill"
           d="m -0.75421511,5.8946074 v 1.3020751 l 0.51359855,0.2686529 V 6.1632605 Z"
           id="path30" />
        <path
           style="fill:#ff4d4d;fill-opacity:1;stroke:none;stroke-width:0.185709;stroke-linecap:round;stroke-linejoin:round;stroke-dasharray:none;stroke-opacity:1;paint-order:stroke markers fill"
           d="M 0.13584414,5.8946074 V 7.1966825 L -0.24061654,7.4653354 V 6.1632605 Z"
           id="path32" />
      </g>
    </g>
    <path
       id="path33"
       style="fill:#ffffff;fill-opacity:1;stroke-width:0.334312;stroke-linecap:round;paint-order:stroke markers fill"
       d="m -4.4214959,-2.5925526 c -0.040062,0 -0.072225,0.032167 -0.072225,0.072232 v 0.1324722 h -0.1324782 c -0.040062,0 -0.072524,0.03246 -0.072524,0.072523 0,0.040064 0.032463,0.072232 0.072524,0.072232 h 0.1324726 v 0.1324726 c 0,0.040064 0.032173,0.072523 0.072225,0.072523 0.040062,0 0.072225,-0.03246 0.072225,-0.072523 v -0.1324733 h 0.1327652 c 0.040061,0 0.072225,-0.032167 0.072225,-0.072232 0,-0.040063 -0.032163,-0.072524 -0.072225,-0.072524 h -0.1327531 v -0.1324713 c 0,-0.040063 -0.032173,-0.072232 -0.072225,-0.072232 z" />
    <circle
       style="fill:none;fill-opacity:1;stroke:#fff4f4;stroke-width:0.0534902;stroke-linecap:round;stroke-dasharray:none;stroke-dashoffset:0;stroke-opacity:1;paint-order:stroke markers fill"
       id="path498"
       cx="-0.63161695"
       cy="3.4850972"
       r="0.12335889" />
    <g
       id="g500"
       transform="rotate(-43.622297,1.3999189,2.5177321)">
      <path
         style="fill:#ffffff;fill-opacity:1;stroke:#fff4f4;stroke-width:0.0668626;stroke-linecap:butt;stroke-dasharray:none;stroke-dashoffset:0;stroke-opacity:1;paint-order:stroke markers fill"
         d="M 0.4415308,1.9120805 V 2.2504843"
         id="path499" />
      <path
         style="fill:#ffffff;fill-opacity:1;stroke:#fff4f4;stroke-width:0.0668626;stroke-linecap:butt;stroke-dasharray:none;stroke-dashoffset:0;stroke-opacity:1;paint-order:stroke markers fill"
         d="M 0.2723289,2.0812824 H 0.6107327"
         id="path500" />
    </g>
    <g
       id="g7"
       transform="matrix(1.1666667,0,0,1,-11.508879,-1.8443017)"
       style="stroke:none;stroke-width:1.23806">
      <g
         id="g5"
         transform="translate(5.3852537,-4.9777436)"
         style="stroke-width:1.23806">
        <path
           style="fill:#ff4d4d;fill-opacity:1;stroke:none;stroke-width:0.185709;stroke-linecap:round;stroke-linejoin:round;stroke-dasharray:none;stroke-opacity:1;paint-order:stroke markers fill"
           d="M -0.75421511,5.8946074 V 7.1966825 L -1.1306758,7.4653354 V 6.1632605 Z"
           id="path2" />
        <path
           style="fill:#ff7070;fill-opacity:1;stroke:none;stroke-width:0.185709;stroke-linecap:round;stroke-linejoin:round;stroke-dasharray:none;stroke-opacity:1;paint-order:stroke markers fill"
           d="m -0.75421511,5.8946074 v 1.3020751 l 0.51359855,0.2686529 V 6.1632605 Z"
           id="path4" />
        <path
           style="fill:#ff4d4d;fill-opacity:1;stroke:none;stroke-width:0.185709;stroke-linecap:round;stroke-linejoin:round;stroke-dasharray:none;stroke-opacity:1;paint-order:stroke markers fill"
           d="M 0.13584414,5.8946074 V 7.1966825 L -0.24061654,7.4653354 V 6.1632605 Z"
           id="path5" />
      </g>
    </g>
    <path
       id="path7"
       style="fill:#ffffff;fill-opacity:1;stroke-width:0.334312;stroke-linecap:round;paint-order:stroke markers fill"
       d="m -5.8063922,-0.4193009 c -0.040062,0 -0.072225,0.032167 -0.072225,0.072232 v 0.1324722 h -0.1324782 c -0.040062,0 -0.072524,0.03246 -0.072524,0.072523 0,0.040064 0.032463,0.072232 0.072524,0.072232 h 0.1324726 v 0.1324726 c 0,0.040064 0.032173,0.072523 0.072225,0.072523 0.040062,0 0.072225,-0.03246 0.072225,-0.072523 v -0.1324733 h 0.1327652 c 0.040061,0 0.072225,-0.032167 0.072225,-0.072232 0,-0.040063 -0.032163,-0.072524 -0.072225,-0.072524 h -0.1327531 v -0.1324713 c 0,-0.040063 -0.032173,-0.072232 -0.072225,-0.072232 z" />
    <g
       id="g15"
       transform="translate(-5.3820267,-0.92451992)">
      <g
         id="g12"
         transform="matrix(1.1666667,0,0,1,-6.1219025,-3.0862778)"
         style="stroke:none;stroke-width:1.23806">
        <g
           id="g11"
           transform="translate(5.3852537,-4.9777436)"
           style="stroke-width:1.23806">
          <path
             style="fill:#ff4d4d;fill-opacity:1;stroke:none;stroke-width:0.185709;stroke-linecap:round;stroke-linejoin:round;stroke-dasharray:none;stroke-opacity:1;paint-order:stroke markers fill"
             d="M -0.75421511,5.8946074 V 7.1966825 L -1.1306758,7.4653354 V 6.1632605 Z"
             id="path9" />
          <path
             style="fill:#ff7070;fill-opacity:1;stroke:none;stroke-width:0.185709;stroke-linecap:round;stroke-linejoin:round;stroke-dasharray:none;stroke-opacity:1;paint-order:stroke markers fill"
             d="m -0.75421511,5.8946074 v 1.3020751 l 0.51359855,0.2686529 V 6.1632605 Z"
             id="path10" />
          <path
             style="fill:#ff4d4d;fill-opacity:1;stroke:none;stroke-width:0.185709;stroke-linecap:round;stroke-linejoin:round;stroke-dasharray:none;stroke-opacity:1;paint-order:stroke markers fill"
             d="M 0.13584414,5.8946074 V 7.1966825 L -0.24061654,7.4653354 V 6.1632605 Z"
             id="path11" />
        </g>
      </g>
      <path
         id="path6"
         style="fill:#ffffff;fill-opacity:1;stroke-width:0.267451;stroke-linecap:round;paint-order:stroke markers fill"
         d="m -0.53350015,-1.6003694 a 0.13745973,0.13745973 0 0 0 -0.0851835,0.039689 0.13745973,0.13745973 0 0 0 0,0.1942616 l 0.004862,0.00486 0.1943966,0.1943967 0.1943966,-0.1943967 0.004862,-0.00486 a 0.13745973,0.13745973 0 0 0 0,-0.1942616 0.13745973,0.13745973 0 0 0 -0.1943966,0 l -0.004862,0.00486 -0.004862,-0.00486 a 0.13745973,0.13745973 0 0 0 -0.1092131,-0.039689 z" />
    </g>
    <g
       id="g24"
       transform="matrix(0.28606158,0,0,0.28606158,-3.5340363,-4.7460447)"
       style="stroke-width:4.67469" />
    <g
       id="g330"
       transform="translate(-0.11028065,-1.663945)"
       style="stroke-width:1.33725">
      <g
         id="g329"
         transform="matrix(1.1666667,0,0,1,-5.7024787,1.33874)"
         style="stroke:none;stroke-width:1.23806" />
    </g>
    <path
       style="color:#000000;fill:#fff4f4;stroke-linecap:round;stroke-dasharray:0.0534902, 0.10698;-inkscape-stroke:none;paint-order:stroke markers fill"
       d="m 0.12304687,2.8261719 a 0.0267451,0.0267451 0 0 0 -0.02734375,0.027344 0.0267451,0.0267451 0 0 0 0.02734375,0.027344 H 0.140625 l 0.0292969,0.00195 h 0.001953 a 0.0267451,0.0267451 0 0 0 0.03125,-0.021484 0.0267451,0.0267451 0 0 0 -0.0214844,-0.03125 h -0.003906 l -0.0351563,-0.00391 z m -0.11523437,0.025391 -0.0234375,0.011719 -0.02734375,0.019531 a 0.0267451,0.0267451 0 0 0 -0.0039063,0.037109 0.0267451,0.0267451 0 0 0 0.03710937,0.00586 L 0.01171875,2.9082031 0.03125,2.9003906 A 0.0267451,0.0267451 0 0 0 0.04296875,2.8632813 0.0267451,0.0267451 0 0 0 0.0078125,2.8515625 Z m -0.10546875,0.1113281 a 0.0267451,0.0267451 0 0 0 -0.015625,0.011719 l -0.003906,0.00586 -0.0117188,0.029297 -0.005859,0.019531 a 0.0267451,0.0267451 0 0 0 0.0175781,0.035156 0.0267451,0.0267451 0 0 0 0.03320313,-0.017578 l 0.0058594,-0.019531 0.0097656,-0.023437 0.0019531,-0.00195 a 0.0267451,0.0267451 0 0 0 -0.0097656,-0.037109 0.0267451,0.0267451 0 0 0 -0.02148438,-0.00195 z M -0.12695312,3.1171875 A 0.0267451,0.0267451 0 0 0 -0.15625,3.140625 l -0.003906,0.052734 a 0.0267451,0.0267451 0 0 0 0.0234375,0.029297 0.0267451,0.0267451 0 0 0 0.0292969,-0.023437 l 0.003906,-0.054687 a 0.0267451,0.0267451 0 0 0 -0.0234375,-0.027344 z m -0.0117188,0.1582031 a 0.0267451,0.0267451 0 0 0 -0.03125,0.023437 l -0.005859,0.029297 -0.003906,0.019531 a 0.0267451,0.0267451 0 0 0 0.0175781,0.033203 0.0267451,0.0267451 0 0 0 0.0332031,-0.019531 l 0.005859,-0.021484 0.005859,-0.033203 a 0.0267451,0.0267451 0 0 0 -0.0214844,-0.03125 z m -0.0664063,0.1503907 a 0.0267451,0.0267451 0 0 0 -0.015625,0.011719 l -0.0175781,0.017578 -0.015625,0.00977 a 0.0267451,0.0267451 0 0 0 -0.007813,0.037109 0.0267451,0.0267451 0 0 0 0.0371094,0.00781 l 0.0214844,-0.013672 0.0253906,-0.027344 0.001953,-0.00195 a 0.0267451,0.0267451 0 0 0 -0.007813,-0.037109 0.0267451,0.0267451 0 0 0 -0.0214844,-0.00391 z m -0.19726562,0.039063 a 0.0267451,0.0267451 0 0 0 -0.015625,0.015625 0.0267451,0.0267451 0 0 0 0.0136719,0.035156 l 0.0136719,0.00391 0.03125,0.00977 0.0136719,0.00195 a 0.0267451,0.0267451 0 0 0 0.03125,-0.023437 0.0267451,0.0267451 0 0 0 -0.0234375,-0.029297 l -0.0117188,-0.00195 -0.0234375,-0.00781 -0.009766,-0.00391 a 0.0267451,0.0267451 0 0 0 -0.0195313,0 z"
       id="path501" />
  </g>
</svg>
